<svg width="26" height="26" viewBox="0 0 26 26" fill="none" xmlns="http://www.w3.org/2000/svg">
<path d="M13.4501 0.136082C13.3168 0.047344 13.1602 0 13 0C12.8398 0 12.6832 0.047344 12.5499 0.136082L0.362375 8.26121C0.217339 8.35792 0.107252 8.49872 0.0483749 8.6628C-0.010502 8.82688 -0.0150467 9.00555 0.035412 9.17241C0.0858707 9.33927 0.188657 9.48548 0.328589 9.58944C0.468521 9.6934 0.638178 9.7496 0.8125 9.74974H3.85938V21.1249H2.4375C2.22201 21.1249 2.01535 21.2105 1.86298 21.3629C1.7106 21.5153 1.625 21.7219 1.625 21.9374C1.625 22.1529 1.7106 22.3596 1.86298 22.512C2.01535 22.6643 2.22201 22.7499 2.4375 22.7499H23.5625C23.778 22.7499 23.9847 22.6643 24.137 22.512C24.2894 22.3596 24.375 22.1529 24.375 21.9374C24.375 21.7219 24.2894 21.5153 24.137 21.3629C23.9847 21.2105 23.778 21.1249 23.5625 21.1249H22.1406V9.74974H25.1875C25.3618 9.7496 25.5315 9.6934 25.6714 9.58944C25.8113 9.48548 25.9141 9.33927 25.9646 9.17241C26.015 9.00555 26.0105 8.82688 25.9516 8.6628C25.8927 8.49872 25.7827 8.35792 25.6376 8.26121L13.4501 0.136082ZM20.1094 9.74974V21.1249H18.0781V9.74974H20.1094ZM16.0469 9.74974V21.1249H14.0156V9.74974H16.0469ZM11.9844 9.74974V21.1249H9.95312V9.74974H11.9844ZM7.92188 9.74974V21.1249H5.89062V9.74974H7.92188ZM13 6.49968C12.569 6.49968 12.1557 6.32848 11.851 6.02373C11.5462 5.71897 11.375 5.30564 11.375 4.87466C11.375 4.44367 11.5462 4.03034 11.851 3.72559C12.1557 3.42084 12.569 3.24963 13 3.24963C13.431 3.24963 13.8443 3.42084 14.149 3.72559C14.4538 4.03034 14.625 4.44367 14.625 4.87466C14.625 5.30564 14.4538 5.71897 14.149 6.02373C13.8443 6.32848 13.431 6.49968 13 6.49968ZM0.8125 24.375C0.597012 24.375 0.390349 24.4606 0.237976 24.613C0.0856024 24.7653 0 24.972 0 25.1875C0 25.403 0.0856024 25.6096 0.237976 25.762C0.390349 25.9144 0.597012 26 0.8125 26H25.1875C25.403 26 25.6097 25.9144 25.762 25.762C25.9144 25.6096 26 25.403 26 25.1875C26 24.972 25.9144 24.7653 25.762 24.613C25.6097 24.4606 25.403 24.375 25.1875 24.375H0.8125Z" fill="#0F4C8A"/>
</svg>
