<svg width="26" height="26" viewBox="0 0 26 26" fill="none" xmlns="http://www.w3.org/2000/svg">
<g clip-path="url(#clip0_1_2)">
<path d="M13.4501 0.136733C13.3168 0.0479961 13.1602 0.00065279 13 0.00065279C12.8398 0.00065279 12.6832 0.0479961 12.5499 0.136733L0.362375 8.26173C0.217339 8.35844 0.107252 8.49923 0.0483749 8.66331C-0.010502 8.82739 -0.0150467 9.00606 0.035412 9.17292C0.0858707 9.33978 0.188657 9.48598 0.328589 9.58994C0.468521 9.6939 0.638178 9.7501 0.8125 9.75023H3.85938V21.1252H2.4375C2.22201 21.1252 2.01535 21.2108 1.86298 21.3632C1.7106 21.5156 1.625 21.7222 1.625 21.9377C1.625 22.1532 1.7106 22.3599 1.86298 22.5123C2.01535 22.6646 2.22201 22.7502 2.4375 22.7502H23.5625C23.778 22.7502 23.9847 22.6646 24.137 22.5123C24.2894 22.3599 24.375 22.1532 24.375 21.9377C24.375 21.7222 24.2894 21.5156 24.137 21.3632C23.9847 21.2108 23.778 21.1252 23.5625 21.1252H22.1406V9.75023H25.1875C25.3618 9.7501 25.5315 9.6939 25.6714 9.58994C25.8113 9.48598 25.9141 9.33978 25.9646 9.17292C26.015 9.00606 26.0105 8.82739 25.9516 8.66331C25.8927 8.49923 25.7827 8.35844 25.6376 8.26173L13.4501 0.136733ZM20.1094 9.75023V21.1252H18.0781V9.75023H20.1094ZM16.0469 9.75023V21.1252H14.0156V9.75023H16.0469ZM11.9844 9.75023V21.1252H9.95312V9.75023H11.9844ZM7.92188 9.75023V21.1252H5.89062V9.75023H7.92188ZM13 6.50023C12.569 6.50023 12.1557 6.32903 11.851 6.02428C11.5462 5.71953 11.375 5.30621 11.375 4.87523C11.375 4.44426 11.5462 4.03093 11.851 3.72618C12.1557 3.42144 12.569 3.25023 13 3.25023C13.431 3.25023 13.8443 3.42144 14.149 3.72618C14.4538 4.03093 14.625 4.44426 14.625 4.87523C14.625 5.30621 14.4538 5.71953 14.149 6.02428C13.8443 6.32903 13.431 6.50023 13 6.50023ZM0.8125 24.3752C0.597012 24.3752 0.390349 24.4608 0.237976 24.6132C0.0856024 24.7656 0 24.9722 0 25.1877C0 25.4032 0.0856024 25.6099 0.237976 25.7623C0.390349 25.9146 0.597012 26.0002 0.8125 26.0002H25.1875C25.403 26.0002 25.6097 25.9146 25.762 25.7623C25.9144 25.6099 26 25.4032 26 25.1877C26 24.9722 25.9144 24.7656 25.762 24.6132C25.6097 24.4608 25.403 24.3752 25.1875 24.3752H0.8125Z" fill="white"/>
</g>
<defs>
<clipPath id="clip0_1_2">
<rect width="26" height="26" fill="white"/>
</clipPath>
</defs>
</svg>
