<svg width="26" height="25" viewBox="0 0 26 25" fill="none" xmlns="http://www.w3.org/2000/svg">
<path d="M22.5 9.5V19.5M6.5 9.5V19.5M3.5 9.5V19.5M19.5 9.5V19.5M3 21.5H23M1 24H25M13 11.5H12C11.7348 11.5 11.4804 11.6054 11.2929 11.7929C11.1054 11.9804 11 12.2348 11 12.5V12.875C11 13.0914 11.0702 13.3019 11.2 13.475C11.3298 13.6481 11.5123 13.7744 11.72 13.835L14.28 14.582C14.4877 14.6426 14.6702 14.7689 14.8 14.942C14.9298 15.1151 15 15.3256 15 15.542V16.5C15 16.7652 14.8946 17.0196 14.7071 17.2071C14.5196 17.3946 14.2652 17.5 14 17.5H13M13 11.5H14C14.2652 11.5 14.5196 11.6054 14.7071 11.7929C14.8946 11.9804 15 12.2348 15 12.5V13M13 11.5V9.5M13 17.5H12C11.7348 17.5 11.4804 17.3946 11.2929 17.2071C11.1054 17.0196 11 16.7652 11 16.5V16M13 17.5V19.5M24.5 6.75V7.5H1.5V6.75C6.5 5 9.5 3.5 12.75 1H13.25C16.5 3.5 19.5 5 24.5 6.75Z" stroke="#0F4C8A" stroke-width="1.25"/>
</svg>
