<svg width="26" height="26" viewBox="0 0 26 26" fill="none" xmlns="http://www.w3.org/2000/svg">
<path d="M13 0C5.811 0 0 5.85 0 13C0 20.15 5.85 26 13 26C20.15 26 26 20.15 26 13C26 5.85 20.15 0 13 0ZM13 23.4C7.254 23.4 2.6 18.746 2.6 13C2.6 7.254 7.254 2.6 13 2.6C18.746 2.6 23.4 7.254 23.4 13C23.4 18.746 18.746 23.4 13 23.4ZM7.8 15.6L6.5 7.8L10.4 10.4L13 6.5L15.6 10.4L19.5 7.8L18.2 15.6H7.8ZM8.528 18.2C8.086 18.2 7.8 17.914 7.8 17.472V16.9H18.2V17.472C18.2 17.914 17.914 18.2 17.472 18.2H8.528Z" fill="white"/>
</svg>
