<svg width="24" height="24" viewBox="0 0 24 24" fill="none" xmlns="http://www.w3.org/2000/svg">
<path opacity="0.8" d="M12 0C5.364 0 0 5.4 0 12C0 18.6 5.4 24 12 24C18.6 24 24 18.6 24 12C24 5.4 18.6 0 12 0ZM12 21.6C6.696 21.6 2.4 17.304 2.4 12C2.4 6.696 6.696 2.4 12 2.4C17.304 2.4 21.6 6.696 21.6 12C21.6 17.304 17.304 21.6 12 21.6ZM7.2 14.4L6 7.2L9.6 9.6L12 6L14.4 9.6L18 7.2L16.8 14.4H7.2ZM7.872 16.8C7.464 16.8 7.2 16.536 7.2 16.128V15.6H16.8V16.128C16.8 16.536 16.536 16.8 16.128 16.8H7.872Z" fill="#0F4C8A"/>
</svg>
