<svg width="15" height="15" viewBox="0 0 15 15" fill="none" xmlns="http://www.w3.org/2000/svg">
<path d="M5 13.9504C4.825 13.9504 4.64374 13.9066 4.48124 13.8191C4.12499 13.6316 3.90625 13.2566 3.90625 12.8566V11.9692C2.01875 11.7754 0.78125 10.3879 0.78125 8.40036V4.65039C0.78125 2.50039 2.225 1.05664 4.375 1.05664H10.625C12.775 1.05664 14.2188 2.50039 14.2188 4.65039V8.40036C14.2188 10.5504 12.775 11.9941 10.625 11.9941H8.26875L5.60623 13.7692C5.42498 13.8879 5.2125 13.9504 5 13.9504ZM4.375 1.98788C2.7625 1.98788 1.71875 3.03163 1.71875 4.64413V8.39418C1.71875 10.0067 2.7625 11.0504 4.375 11.0504C4.63125 11.0504 4.84375 11.2629 4.84375 11.5192V12.8504C4.84375 12.9317 4.89375 12.9692 4.925 12.9879C4.95626 13.0067 5.01876 13.0254 5.08751 12.9817L7.86875 11.1317C7.94375 11.0817 8.0375 11.0504 8.13125 11.0504H10.6313C12.2438 11.0504 13.2875 10.0067 13.2875 8.39418V4.64413C13.2875 3.03163 12.2438 1.98788 10.6313 1.98788H4.375Z" fill="#0F4C8A"/>
<path d="M7.49939 7.56838C7.24314 7.56838 7.03064 7.35588 7.03064 7.09963V6.96838C7.03064 6.24338 7.56189 5.88713 7.76189 5.74963C7.99314 5.59338 8.06814 5.48713 8.06814 5.32463C8.06814 5.01213 7.81189 4.75586 7.49939 4.75586C7.18689 4.75586 6.93064 5.01213 6.93064 5.32463C6.93064 5.58088 6.71814 5.79338 6.46189 5.79338C6.20566 5.79338 5.99316 5.58088 5.99316 5.32463C5.99316 4.49338 6.66814 3.81836 7.49939 3.81836C8.33064 3.81836 9.00564 4.49338 9.00564 5.32463C9.00564 6.03713 8.48064 6.39338 8.28689 6.52463C8.04314 6.68713 7.96814 6.79338 7.96814 6.96838V7.09963C7.96814 7.36213 7.75564 7.56838 7.49939 7.56838Z" fill="#0F4C8A"/>
<path d="M7.5 9.125C7.2375 9.125 7.03125 8.9125 7.03125 8.65625C7.03125 8.4 7.24375 8.1875 7.5 8.1875C7.75625 8.1875 7.96875 8.4 7.96875 8.65625C7.96875 8.9125 7.7625 9.125 7.5 9.125Z" fill="#0F4C8A"/>
</svg>
