<svg width="26" height="26" viewBox="0 0 26 26" fill="none" xmlns="http://www.w3.org/2000/svg">
<path d="M8.66663 24.1799C8.36329 24.1799 8.0491 24.1041 7.76744 23.9524C7.14994 23.6274 6.77079 22.9774 6.77079 22.2841V20.7459C3.49913 20.41 1.35413 18.0049 1.35413 14.5599V8.05998C1.35413 4.33331 3.85663 1.83081 7.58329 1.83081H18.4166C22.1433 1.83081 24.6458 4.33331 24.6458 8.05998V14.5599C24.6458 18.2866 22.1433 20.7891 18.4166 20.7891H14.3325L9.71743 23.8659C9.40326 24.0717 9.03496 24.1799 8.66663 24.1799ZM7.58329 3.44497C4.78829 3.44497 2.97913 5.25413 2.97913 8.04913V14.5492C2.97913 17.3442 4.78829 19.1534 7.58329 19.1534C8.02746 19.1534 8.39579 19.5217 8.39579 19.9659V22.2734C8.39579 22.4142 8.48246 22.4792 8.53663 22.5117C8.5908 22.5442 8.69914 22.5767 8.8183 22.5009L13.6391 19.2942C13.7691 19.2075 13.9316 19.1534 14.0941 19.1534H18.4275C21.2225 19.1534 23.0316 17.3442 23.0316 14.5492V8.04913C23.0316 5.25413 21.2225 3.44497 18.4275 3.44497H7.58329Z" fill="#0F4C8A"/>
<path d="M12.9998 13.1189C12.5557 13.1189 12.1873 12.7506 12.1873 12.3064V12.0789C12.1873 10.8223 13.1082 10.2048 13.4548 9.96643C13.8557 9.6956 13.9857 9.51144 13.9857 9.22977C13.9857 8.68811 13.5415 8.2439 12.9998 8.2439C12.4582 8.2439 12.014 8.68811 12.014 9.22977C12.014 9.67394 11.6457 10.0423 11.2015 10.0423C10.7574 10.0423 10.389 9.67394 10.389 9.22977C10.389 7.78894 11.559 6.6189 12.9998 6.6189C14.4407 6.6189 15.6107 7.78894 15.6107 9.22977C15.6107 10.4648 14.7007 11.0823 14.3648 11.3098C13.9423 11.5914 13.8123 11.7756 13.8123 12.0789V12.3064C13.8123 12.7614 13.444 13.1189 12.9998 13.1189Z" fill="#0F4C8A"/>
<path d="M13 15.8169C12.545 15.8169 12.1875 15.4486 12.1875 15.0044C12.1875 14.5602 12.5558 14.1919 13 14.1919C13.4442 14.1919 13.8125 14.5602 13.8125 15.0044C13.8125 15.4486 13.455 15.8169 13 15.8169Z" fill="#0F4C8A"/>
</svg>
