<svg width="30" height="30" viewBox="0 0 30 30" fill="none" xmlns="http://www.w3.org/2000/svg">
<path d="M28 26.3492V12.3175C28 12.0612 27.9413 11.8084 27.8284 11.5792C27.7156 11.35 27.5518 11.1506 27.35 10.9968L15.975 2.33016C15.6937 2.11585 15.3516 2 15 2C14.6484 2 14.3063 2.11585 14.025 2.33016L2.65 10.9968C2.44818 11.1506 2.28438 11.35 2.17156 11.5792C2.05874 11.8084 2 12.0612 2 12.3175V26.3492C2 26.787 2.17121 27.2069 2.47595 27.5165C2.7807 27.8261 3.19402 28 3.625 28H26.375C26.806 28 27.2193 27.8261 27.524 27.5165C27.8288 27.2069 28 26.787 28 26.3492Z" stroke="white" stroke-width="2.5" stroke-linecap="round" stroke-linejoin="round"/>
</svg>
