<svg width="26" height="26" viewBox="0 0 26 26" fill="none" xmlns="http://www.w3.org/2000/svg">
<path d="M24 22.6032V10.7302C24 10.5133 23.9503 10.2994 23.8548 10.1055C23.7594 9.91152 23.6208 9.74281 23.45 9.6127L13.825 2.27936C13.587 2.09803 13.2975 2 13 2C12.7025 2 12.413 2.09803 12.175 2.27936L2.55 9.6127C2.37923 9.74281 2.24063 9.91152 2.14516 10.1055C2.0497 10.2994 2 10.5133 2 10.7302V22.6032C2 22.9736 2.14487 23.3289 2.40273 23.5909C2.66059 23.8528 3.01033 24 3.375 24H22.625C22.9897 24 23.3394 23.8528 23.5973 23.5909C23.8551 23.3289 24 22.9736 24 22.6032Z" stroke="#0F4C8A" stroke-width="2.5" stroke-linecap="round" stroke-linejoin="round"/>
</svg>
