<svg width="16" height="16" viewBox="0 0 16 16" fill="none" xmlns="http://www.w3.org/2000/svg">
<path d="M14 13.2381V6.7619C14 6.64362 13.9729 6.52697 13.9208 6.42117C13.8687 6.31538 13.7931 6.22335 13.7 6.15238L8.45 2.15238C8.32018 2.05347 8.16228 2 8 2C7.83772 2 7.67982 2.05347 7.55 2.15238L2.3 6.15238C2.20685 6.22335 2.13125 6.31538 2.07918 6.42117C2.02711 6.52697 2 6.64362 2 6.7619V13.2381C2 13.4402 2.07902 13.634 2.21967 13.7768C2.36032 13.9197 2.55109 14 2.75 14H13.25C13.4489 14 13.6397 13.9197 13.7803 13.7768C13.921 13.634 14 13.4402 14 13.2381Z" stroke="#0F4C8A" stroke-width="2.5" stroke-linecap="round" stroke-linejoin="round"/>
</svg>
