<svg width="24" height="24" viewBox="0 0 24 24" fill="none" xmlns="http://www.w3.org/2000/svg">
<path d="M23.0535 7.3285C22.4526 5.90284 21.5796 4.60795 20.4833 3.51625C19.3908 2.42094 18.0961 1.54806 16.671 0.946003C15.1935 0.319076 13.6043 -0.00237511 11.9993 0.00100291C10.3785 0.00100291 8.80802 0.317503 7.32752 0.946003C5.90235 1.54785 4.60763 2.42077 3.51527 3.51625C2.41922 4.60892 1.54513 5.9035 0.941274 7.3285C0.316938 8.80673 -0.00318069 10.3956 2.38226e-05 12.0003C2.38226e-05 13.6173 0.316524 15.1878 0.945024 16.672C1.54596 18.0977 2.41899 19.3926 3.51527 20.4843C4.60778 21.5796 5.90246 22.4524 7.32752 23.0545C8.80431 23.6839 10.394 24.0055 11.9993 23.9995C13.6163 23.9995 15.1868 23.6868 16.671 23.0545C19.5474 21.8416 21.8372 19.5544 23.0535 16.6795C23.6824 15.2052 24.0039 13.6181 23.9985 12.0153C23.9985 10.3983 23.682 8.83525 23.0535 7.351V7.3285ZM11.9985 22.336C6.29177 22.336 1.66277 17.707 1.66277 12.0003C1.66277 6.2935 6.29177 1.6645 11.9985 1.6645C17.7053 1.6645 22.3343 6.2935 22.3343 12.0003C22.3343 17.707 17.7053 22.336 11.9985 22.336ZM15.2408 4.1215H8.75627C7.83452 4.1215 7.05677 4.4455 6.42452 5.098C5.78777 5.7385 5.47127 6.52 5.47127 7.42975V17.6133C5.47127 18.0625 5.60402 18.4218 5.86952 18.7068C6.13502 18.976 6.48302 19.129 6.92027 19.129C7.36577 19.129 7.72502 18.9925 7.99877 18.7225C8.27252 18.4488 8.40902 18.0933 8.40902 17.6403V7.078H10.5495V17.6095C10.5495 18.055 10.6823 18.4143 10.9403 18.688C11.1983 18.9618 11.5538 19.102 11.9985 19.102C12.444 19.102 12.7995 18.961 13.0568 18.688C13.3185 18.4143 13.4475 18.055 13.4475 17.6095V7.078H15.5918V17.6095C15.5918 18.055 15.7245 18.4143 15.9983 18.688C16.272 18.9618 16.635 19.102 17.0768 19.102C17.514 19.102 17.862 18.961 18.1275 18.676C18.3968 18.3985 18.5295 18.0393 18.5295 17.6095V7.426C18.5295 6.5155 18.213 5.7385 17.5763 5.08975C16.9433 4.441 16.1663 4.11325 15.24 4.11325L15.2408 4.1215Z" fill="white"/>
</svg>
