<svg width="24" height="24" viewBox="0 0 24 24" fill="none" xmlns="http://www.w3.org/2000/svg">
<path d="M23.0535 7.32753C22.4526 5.90186 21.5796 4.60698 20.4833 3.51528C19.3908 2.41997 18.0961 1.54708 16.671 0.945026C15.1935 0.318099 13.6043 -0.00335167 11.9993 2.63497e-05C10.3785 2.63497e-05 8.80802 0.316526 7.32752 0.945026C5.90235 1.54688 4.60763 2.41979 3.51527 3.51528C2.41922 4.60795 1.54513 5.90253 0.941274 7.32753C0.316938 8.80575 -0.00318069 10.3946 2.38226e-05 11.9993C2.38226e-05 13.6163 0.316524 15.1868 0.945024 16.671C1.54596 18.0967 2.41899 19.3916 3.51527 20.4833C4.60778 21.5786 5.90246 22.4515 7.32752 23.0535C8.80431 23.6829 10.394 24.0045 11.9993 23.9985C13.6163 23.9985 15.1868 23.6858 16.671 23.0535C19.5474 21.8406 21.8372 19.5535 23.0535 16.6785C23.6824 15.2042 24.0039 13.6171 23.9985 12.0143C23.9985 10.3973 23.682 8.83428 23.0535 7.35003V7.32753ZM11.9985 22.335C6.29177 22.335 1.66277 17.706 1.66277 11.9993C1.66277 6.29253 6.29177 1.66353 11.9985 1.66353C17.7053 1.66353 22.3343 6.29253 22.3343 11.9993C22.3343 17.706 17.7053 22.335 11.9985 22.335ZM15.2408 4.12053H8.75627C7.83452 4.12053 7.05677 4.44453 6.42452 5.09703C5.78777 5.73753 5.47127 6.51903 5.47127 7.42878V17.6123C5.47127 18.0615 5.60402 18.4208 5.86952 18.7058C6.13502 18.975 6.48302 19.128 6.92027 19.128C7.36577 19.128 7.72502 18.9915 7.99877 18.7215C8.27252 18.4478 8.40902 18.0923 8.40902 17.6393V7.07703H10.5495V17.6085C10.5495 18.054 10.6823 18.4133 10.9403 18.687C11.1983 18.9608 11.5538 19.101 11.9985 19.101C12.444 19.101 12.7995 18.96 13.0568 18.687C13.3185 18.4133 13.4475 18.054 13.4475 17.6085V7.07703H15.5918V17.6085C15.5918 18.054 15.7245 18.4133 15.9983 18.687C16.272 18.9608 16.635 19.101 17.0768 19.101C17.514 19.101 17.862 18.96 18.1275 18.675C18.3968 18.3975 18.5295 18.0383 18.5295 17.6085V7.42503C18.5295 6.51453 18.213 5.73753 17.5763 5.08878C16.9433 4.44003 16.1663 4.11228 15.24 4.11228L15.2408 4.12053Z" fill="#0F4C8A"/>
</svg>
