<svg width="40" height="40" viewBox="0 0 40 40" fill="none" xmlns="http://www.w3.org/2000/svg">
<path d="M15.2669 18.1171C15.1002 18.1004 14.9002 18.1004 14.7169 18.1171C10.7502 17.9837 7.60022 14.7337 7.60022 10.7337C7.60022 6.65041 10.9002 3.33374 15.0002 3.33374C19.0836 3.33374 22.4002 6.65041 22.4002 10.7337C22.3835 14.7337 19.2336 17.9837 15.2669 18.1171Z" stroke="#0F4C8A" stroke-width="2.625" stroke-linecap="round" stroke-linejoin="round"/>
<path d="M27.3497 6.66626C30.5831 6.66626 33.1831 9.28293 33.1831 12.4996C33.1831 15.6496 30.6831 18.2163 27.5664 18.3329C27.4331 18.3163 27.2831 18.3163 27.1331 18.3329" stroke="#0F4C8A" stroke-width="2.625" stroke-linecap="round" stroke-linejoin="round"/>
<path d="M6.93381 24.2663C2.90048 26.9663 2.90048 31.3663 6.93381 34.0496C11.5171 37.1163 19.0338 37.1163 23.6171 34.0496C27.6505 31.3496 27.6505 26.9496 23.6171 24.2663C19.0505 21.2163 11.5338 21.2163 6.93381 24.2663Z" stroke="#0F4C8A" stroke-width="2.625" stroke-linecap="round" stroke-linejoin="round"/>
<path d="M30.5664 33.3337C31.7664 33.0837 32.8997 32.6004 33.8331 31.8837C36.4331 29.9337 36.4331 26.7171 33.8331 24.7671C32.9164 24.0671 31.7997 23.6004 30.6164 23.3337" stroke="#0F4C8A" stroke-width="2.625" stroke-linecap="round" stroke-linejoin="round"/>
</svg>
