<svg width="20" height="20" viewBox="0 0 20 20" fill="none" xmlns="http://www.w3.org/2000/svg">
<path d="M7.63363 9.05866C7.55029 9.05033 7.45029 9.05033 7.35863 9.05866C5.37529 8.99199 3.80029 7.36699 3.80029 5.36699C3.80029 3.32533 5.45029 1.66699 7.50029 1.66699C9.54196 1.66699 11.2003 3.32533 11.2003 5.36699C11.192 7.36699 9.61696 8.99199 7.63363 9.05866Z" stroke="#0F4C8A" stroke-width="2.625" stroke-linecap="round" stroke-linejoin="round"/>
<path d="M13.6747 3.33301C15.2914 3.33301 16.5914 4.64134 16.5914 6.24967C16.5914 7.82467 15.3414 9.10801 13.7831 9.16634C13.7164 9.15801 13.6414 9.15801 13.5664 9.16634" stroke="#0F4C8A" stroke-width="2.625" stroke-linecap="round" stroke-linejoin="round"/>
<path d="M3.46709 12.133C1.45042 13.483 1.45042 15.683 3.46709 17.0247C5.75876 18.558 9.51709 18.558 11.8088 17.0247C13.8254 15.6747 13.8254 13.4747 11.8088 12.133C9.52542 10.608 5.76709 10.608 3.46709 12.133Z" stroke="#0F4C8A" stroke-width="2.625" stroke-linecap="round" stroke-linejoin="round"/>
<path d="M15.2832 16.667C15.8832 16.542 16.4499 16.3003 16.9165 15.942C18.2165 14.967 18.2165 13.3587 16.9165 12.3837C16.4582 12.0337 15.8999 11.8003 15.3082 11.667" stroke="#0F4C8A" stroke-width="2.625" stroke-linecap="round" stroke-linejoin="round"/>
</svg>
