<svg width="30" height="30" viewBox="0 0 30 30" fill="none" xmlns="http://www.w3.org/2000/svg">
<path d="M26.25 16.8112V12.0295C26.2473 9.89894 25.3045 7.83791 23.5887 6.21138C21.8728 4.58485 19.4945 3.49779 16.875 3.1427V1.50368C16.875 1.10488 16.6775 0.722414 16.3258 0.440419C15.9742 0.158423 15.4973 0 15 0C14.5027 0 14.0258 0.158423 13.6742 0.440419C13.3225 0.722414 13.125 1.10488 13.125 1.50368V3.1427C10.5055 3.49779 8.12723 4.58485 6.41135 6.21138C4.69546 7.83791 3.75269 9.89894 3.75 12.0295V16.8112C2.65584 17.1214 1.70812 17.6955 1.03676 18.4546C0.365397 19.2138 0.00326158 20.1209 0 21.0516V24.0589C0 24.4577 0.197544 24.8402 0.549175 25.1222C0.900806 25.4042 1.37772 25.5626 1.875 25.5626H7.7625C8.19428 26.8368 9.13688 27.9616 10.4449 28.7636C11.7529 29.5655 13.3536 30 15 30C16.6464 30 18.2471 29.5655 19.5551 28.7636C20.8631 27.9616 21.8057 26.8368 22.2375 25.5626H28.125C28.6223 25.5626 29.0992 25.4042 29.4508 25.1222C29.8025 24.8402 30 24.4577 30 24.0589V21.0516C29.9967 20.1209 29.6346 19.2138 28.9632 18.4546C28.2919 17.6955 27.3442 17.1214 26.25 16.8112ZM7.5 12.0295C7.5 10.4343 8.29018 8.90439 9.6967 7.77641C11.1032 6.64843 13.0109 6.01474 15 6.01474C16.9891 6.01474 18.8968 6.64843 20.3033 7.77641C21.7098 8.90439 22.5 10.4343 22.5 12.0295V16.5405H7.5V12.0295ZM15 27.0663C14.3456 27.0631 13.7036 26.9227 13.1378 26.6589C12.572 26.3951 12.1022 26.0172 11.775 25.5626H18.225C17.8978 26.0172 17.428 26.3951 16.8622 26.6589C16.2964 26.9227 15.6544 27.0631 15 27.0663ZM26.25 22.5553H3.75V21.0516C3.75 20.6528 3.94754 20.2703 4.29918 19.9883C4.65081 19.7063 5.12772 19.5479 5.625 19.5479H24.375C24.8723 19.5479 25.3492 19.7063 25.7008 19.9883C26.0525 20.2703 26.25 20.6528 26.25 21.0516V22.5553Z" fill="#7C7C8D"/>
</svg>
