<svg width="64" height="64" viewBox="0 0 64 64" fill="none" xmlns="http://www.w3.org/2000/svg">
<path d="M42 32C42 34.6522 40.9464 37.1957 39.0711 39.0711C37.1957 40.9464 34.6522 42 32 42C29.3478 42 26.8043 40.9464 24.9289 39.0711C23.0536 37.1957 22 34.6522 22 32C22 29.3478 23.0536 26.8043 24.9289 24.9289C26.8043 23.0536 29.3478 22 32 22C32.95 22 33.875 22.1375 34.75 22.3875L36.7125 20.425C35.2179 19.8095 33.6164 19.4951 32 19.5C30.3585 19.5 28.733 19.8233 27.2165 20.4515C25.6999 21.0797 24.3219 22.0004 23.1612 23.1612C20.817 25.5054 19.5 28.6848 19.5 32C19.5 35.3152 20.817 38.4946 23.1612 40.8388C24.3219 41.9996 25.6999 42.9203 27.2165 43.5485C28.733 44.1767 30.3585 44.5 32 44.5C35.3152 44.5 38.4946 43.183 40.8388 40.8388C43.183 38.4946 44.5 35.3152 44.5 32M26.8875 29.6L25.125 31.375L30.75 37L43.25 24.5L41.4875 22.725L30.75 33.4625L26.8875 29.6Z" fill="#27AE60"/>
<g opacity="0.15">
<rect width="64" height="64" rx="32" fill="#27AE60"/>
</g>
</svg>
