<svg width="64" height="64" viewBox="0 0 64 64" fill="none" xmlns="http://www.w3.org/2000/svg">
<path d="M33.25 19.5375V22.0625C38.7375 22.7375 42.625 27.725 41.95 33.2125C41.375 37.7625 37.8 41.375 33.25 41.9125V44.4125C40.125 43.725 45.125 37.625 44.4375 30.75C43.875 24.8125 39.1625 20.125 33.25 19.5375ZM30.75 19.575C28.3125 19.8125 25.9875 20.75 24.0875 22.325L25.875 24.175C27.275 23.05 28.9625 22.325 30.75 22.075V19.575ZM22.325 24.0875C20.7621 25.9842 19.8003 28.3039 19.5625 30.75H22.0625C22.3 28.975 23 27.2875 24.1125 25.875L22.325 24.0875ZM19.575 33.25C19.825 35.7 20.7875 38.0125 22.3375 39.9125L24.1125 38.125C23.0087 36.712 22.3049 35.0283 22.075 33.25H19.575ZM25.875 39.9625L24.0875 41.675C25.981 43.2534 28.2991 44.2363 30.75 44.5V42C28.9718 41.7701 27.288 41.0663 25.875 39.9625ZM32.625 25.75V32.3125L38.25 35.65L37.3125 37.1875L30.75 33.25V25.75H32.625Z" fill="#FF7A00"/>
<g opacity="0.15">
<rect width="64" height="64" rx="32" fill="#FF7A00"/>
</g>
</svg>
