<svg width="64" height="64" viewBox="0 0 64 64" fill="none" xmlns="http://www.w3.org/2000/svg">
<path d="M37.3125 42H38.5625V37H37.3125V42ZM40.4375 42H41.6875V37H40.4375V42ZM24.5 28.25H39.5V25.75H24.5V28.25ZM39.5 45.75C37.7708 45.75 36.2967 45.1404 35.0775 43.9213C33.8583 42.7021 33.2492 41.2283 33.25 39.5C33.25 37.7708 33.8596 36.2967 35.0788 35.0775C36.2979 33.8583 37.7717 33.2492 39.5 33.25C41.2292 33.25 42.7033 33.8596 43.9225 35.0788C45.1417 36.2979 45.7508 37.7717 45.75 39.5C45.75 41.2292 45.1404 42.7033 43.9213 43.9225C42.7021 45.1417 41.2283 45.7508 39.5 45.75ZM20.75 44.5V23.25C20.75 22.5625 20.995 21.9738 21.485 21.4838C21.975 20.9938 22.5633 20.7492 23.25 20.75H40.75C41.4375 20.75 42.0263 20.995 42.5163 21.485C43.0063 21.975 43.2508 22.5633 43.25 23.25V31.5938C42.8542 31.4063 42.4479 31.25 42.0312 31.125C41.6146 31 41.1875 30.9063 40.75 30.8438V23.25H23.25V40.8125H30.8437C30.9479 41.4583 31.1096 42.0729 31.3288 42.6563C31.5479 43.2396 31.8342 43.7917 32.1875 44.3125L32 44.5L30.125 42.625L28.25 44.5L26.375 42.625L24.5 44.5L22.625 42.625L20.75 44.5ZM24.5 38.25H30.8437C30.9062 37.8125 31 37.3854 31.125 36.9688C31.25 36.5521 31.4063 36.1458 31.5938 35.75H24.5V38.25ZM24.5 33.25H33.375C34.1667 32.4792 35.0887 31.8696 36.1412 31.4213C37.1937 30.9729 38.3133 30.7492 39.5 30.75H24.5V33.25Z" fill="#FFD233"/>
<g opacity="0.15">
<rect width="64" height="64" rx="32" fill="#FFC107"/>
</g>
</svg>
