<svg width="64" height="64" viewBox="0 0 64 64" fill="none" xmlns="http://www.w3.org/2000/svg">
<path d="M18.25 18.25H45.75M23.25 18.25V24.5C23.25 28.25 29.5 28.5437 29.5 32C29.5 35.4563 23.25 35.75 23.25 39.5V45.75M40.75 18.25V24.5C40.75 28.25 34.5 28.5437 34.5 32C34.5 35.4563 40.75 35.75 40.75 39.5V45.75M18.25 45.75H45.75M29.5 22.625H34.5V24.5C34.5 25.75 32 27 32 27C32 27 29.5 25.75 29.5 24.5V22.625ZM27 43.25C27 40.75 32 38.25 32 38.25C32 38.25 37 40.75 37 43.25V45.75H27V43.25Z" stroke="#FF0000" stroke-width="2"/>
<g opacity="0.15">
<rect width="64" height="64" rx="32" fill="#FF0000"/>
</g>
</svg>
