<svg width="64" height="64" viewBox="0 0 64 64" fill="none" xmlns="http://www.w3.org/2000/svg">
<path d="M32 20.75C25.8125 20.75 20.75 25.8125 20.75 32C20.75 38.1875 25.8125 43.25 32 43.25C38.1875 43.25 43.25 38.1875 43.25 32C43.25 25.8125 38.1875 20.75 32 20.75ZM32 23.25C33.9375 23.25 35.75 23.9375 37.25 25L25 37.25C23.9375 35.75 23.25 33.9375 23.25 32C23.25 27.1875 27.1875 23.25 32 23.25ZM32 40.75C30.0625 40.75 28.25 40.0625 26.75 39L39 26.75C40.0625 28.25 40.75 30.0625 40.75 32C40.75 36.8125 36.8125 40.75 32 40.75Z" fill="#FF0000"/>
<g opacity="0.15">
<rect width="64" height="64" rx="32" fill="#FF0000"/>
</g>
</svg>
