<svg width="15" height="15" viewBox="0 0 15 15" fill="none" xmlns="http://www.w3.org/2000/svg">
<path d="M6.87471 3.7503H8.74971L10.806 1.6878C10.8641 1.62922 10.9332 1.58273 11.0094 1.551C11.0855 1.51927 11.1672 1.50293 11.2497 1.50293C11.3322 1.50293 11.4139 1.51927 11.4901 1.551C11.5662 1.58273 11.6354 1.62922 11.6935 1.6878L13.306 3.30655C13.4224 3.42366 13.4877 3.58206 13.4877 3.74718C13.4877 3.91229 13.4224 4.0707 13.306 4.1878L11.8747 5.6253H6.87471V6.8753C6.87471 7.04106 6.80887 7.20004 6.69166 7.31725C6.57445 7.43446 6.41547 7.5003 6.24971 7.5003C6.08395 7.5003 5.92498 7.43446 5.80777 7.31725C5.69056 7.20004 5.62471 7.04106 5.62471 6.8753V5.0003C5.62471 4.66878 5.75641 4.35084 5.99083 4.11642C6.22525 3.882 6.54319 3.7503 6.87471 3.7503ZM3.12471 6.8753V9.3753L1.69346 10.8066C1.57706 10.9237 1.51172 11.0821 1.51172 11.2472C1.51172 11.4123 1.57706 11.5707 1.69346 11.6878L3.30596 13.3066C3.36407 13.3651 3.43319 13.4116 3.50935 13.4434C3.58552 13.4751 3.66721 13.4914 3.74971 13.4914C3.83222 13.4914 3.91391 13.4751 3.99007 13.4434C4.06624 13.4116 4.13536 13.3651 4.19346 13.3066L6.87471 10.6253H9.37471C9.54047 10.6253 9.69945 10.5595 9.81666 10.4422C9.93387 10.325 9.99971 10.1661 9.99971 10.0003V9.3753H10.6247C10.7905 9.3753 10.9494 9.30946 11.0667 9.19225C11.1839 9.07504 11.2497 8.91606 11.2497 8.7503V8.1253H11.8747C12.0405 8.1253 12.1994 8.05946 12.3167 7.94225C12.4339 7.82504 12.4997 7.66606 12.4997 7.5003V6.8753H8.12471V7.5003C8.12471 7.83182 7.99302 8.14977 7.7586 8.38419C7.52418 8.61861 7.20623 8.7503 6.87471 8.7503H5.62471C5.29319 8.7503 4.97525 8.61861 4.74083 8.38419C4.50641 8.14977 4.37471 7.83182 4.37471 7.5003V5.6253L3.12471 6.8753Z" fill="#0F4C8A"/>
</svg>
