<svg width="13" height="13" viewBox="0 0 13 13" fill="none" xmlns="http://www.w3.org/2000/svg">
<path d="M5.8752 2.74982H7.7502L9.80645 0.687315C9.86455 0.628735 9.93368 0.582239 10.0098 0.550508C10.086 0.518778 10.1677 0.502441 10.2502 0.502441C10.3327 0.502441 10.4144 0.518778 10.4906 0.550508C10.5667 0.582239 10.6359 0.628735 10.694 0.687315L12.3065 2.30607C12.4229 2.42317 12.4882 2.58157 12.4882 2.74669C12.4882 2.91181 12.4229 3.07021 12.3065 3.18732L10.8752 4.62482H5.8752V5.87482C5.8752 6.04058 5.80935 6.19955 5.69214 6.31676C5.57493 6.43397 5.41596 6.49982 5.2502 6.49982C5.08444 6.49982 4.92547 6.43397 4.80826 6.31676C4.69105 6.19955 4.6252 6.04058 4.6252 5.87482V3.99982C4.6252 3.66829 4.7569 3.35035 4.99132 3.11593C5.22574 2.88151 5.54368 2.74982 5.8752 2.74982ZM2.1252 5.87482V8.37482L0.693952 9.80607C0.577546 9.92317 0.512207 10.0816 0.512207 10.2467C0.512207 10.4118 0.577546 10.5702 0.693952 10.6873L2.30645 12.3061C2.36455 12.3646 2.43368 12.4111 2.50984 12.4429C2.586 12.4746 2.6677 12.4909 2.7502 12.4909C2.83271 12.4909 2.9144 12.4746 2.99056 12.4429C3.06673 12.4111 3.13585 12.3646 3.19395 12.3061L5.8752 9.62481H8.3752C8.54096 9.62481 8.69993 9.55897 8.81714 9.44176C8.93435 9.32455 9.0002 9.16558 9.0002 8.99981V8.37482H9.6252C9.79096 8.37482 9.94993 8.30897 10.0671 8.19176C10.1844 8.07455 10.2502 7.91558 10.2502 7.74982V7.12482H10.8752C11.041 7.12482 11.1999 7.05897 11.3171 6.94176C11.4344 6.82455 11.5002 6.66558 11.5002 6.49982V5.87482H7.1252V6.49982C7.1252 6.83134 6.99351 7.14928 6.75909 7.3837C6.52466 7.61812 6.20672 7.74982 5.8752 7.74982H4.6252C4.29368 7.74982 3.97574 7.61812 3.74132 7.3837C3.5069 7.14928 3.3752 6.83134 3.3752 6.49982V4.62482L2.1252 5.87482Z" fill="white"/>
</svg>
