<svg width="15" height="15" viewBox="0 0 15 15" fill="none" xmlns="http://www.w3.org/2000/svg">
<path d="M5 13.9499C4.825 13.9499 4.64374 13.9061 4.48124 13.8186C4.12499 13.6311 3.90625 13.2561 3.90625 12.8561V11.9687C2.01875 11.7749 0.78125 10.3874 0.78125 8.39988V4.6499C0.78125 2.4999 2.225 1.05615 4.375 1.05615H10.625C12.775 1.05615 14.2188 2.4999 14.2188 4.6499V8.39988C14.2188 10.5499 12.775 11.9936 10.625 11.9936H8.26875L5.60623 13.7687C5.42498 13.8874 5.2125 13.9499 5 13.9499ZM4.375 1.9874C2.7625 1.9874 1.71875 3.03115 1.71875 4.64365V8.39369C1.71875 10.0062 2.7625 11.0499 4.375 11.0499C4.63125 11.0499 4.84375 11.2624 4.84375 11.5187V12.8499C4.84375 12.9312 4.89375 12.9687 4.925 12.9874C4.95626 13.0062 5.01876 13.0249 5.08751 12.9812L7.86875 11.1312C7.94375 11.0812 8.0375 11.0499 8.13125 11.0499H10.6313C12.2438 11.0499 13.2875 10.0062 13.2875 8.39369V4.64365C13.2875 3.03115 12.2438 1.9874 10.6313 1.9874H4.375Z" fill="#0F4C8A"/>
<path d="M7.49988 7.56863C7.24363 7.56863 7.03113 7.35613 7.03113 7.09988V6.96863C7.03113 6.24363 7.56238 5.88737 7.76238 5.74987C7.99363 5.59362 8.06863 5.48738 8.06863 5.32488C8.06863 5.01238 7.81238 4.7561 7.49988 4.7561C7.18738 4.7561 6.93113 5.01238 6.93113 5.32488C6.93113 5.58113 6.71863 5.79363 6.46238 5.79363C6.20615 5.79363 5.99365 5.58113 5.99365 5.32488C5.99365 4.49363 6.66863 3.8186 7.49988 3.8186C8.33113 3.8186 9.00613 4.49363 9.00613 5.32488C9.00613 6.03738 8.48113 6.39363 8.28738 6.52488C8.04363 6.68738 7.96863 6.79363 7.96863 6.96863V7.09988C7.96863 7.36238 7.75613 7.56863 7.49988 7.56863Z" fill="#0F4C8A"/>
<path d="M7.5 9.12512C7.2375 9.12512 7.03125 8.91262 7.03125 8.65637C7.03125 8.40012 7.24375 8.18762 7.5 8.18762C7.75625 8.18762 7.96875 8.40012 7.96875 8.65637C7.96875 8.91262 7.7625 9.12512 7.5 9.12512Z" fill="#0F4C8A"/>
</svg>
