<svg width="15" height="15" viewBox="0 0 15 15" fill="none" xmlns="http://www.w3.org/2000/svg">
<path d="M1.875 13.75C1.53125 13.75 1.23688 13.6275 0.991876 13.3825C0.746876 13.1375 0.624584 12.8433 0.625001 12.5V3.75C0.625001 3.40625 0.747501 3.11187 0.992501 2.86687C1.2375 2.62187 1.53167 2.49958 1.875 2.5H6.875V3.75H1.875V12.5H10.625V8.75H11.875V12.5C11.875 12.8438 11.7525 13.1381 11.5075 13.3831C11.2625 13.6281 10.9683 13.7504 10.625 13.75H1.875ZM3.125 11.25H4.375V6.875H3.125V11.25ZM5.625 11.25H6.875V5H5.625V11.25ZM8.125 11.25H9.375V8.75H8.125V11.25ZM11.25 7.5C10.9375 7.5 10.6302 7.45312 10.3281 7.35938C10.026 7.26562 9.74479 7.13021 9.48438 6.95312L9.25 7.17188C9.125 7.28646 8.97646 7.34375 8.80438 7.34375C8.63229 7.34375 8.48917 7.28646 8.375 7.17188C8.26042 7.05729 8.20313 6.91146 8.20313 6.73438C8.20313 6.55729 8.26042 6.41146 8.375 6.29688L8.625 6.04688C8.45833 5.79688 8.33333 5.53125 8.25 5.25C8.16667 4.96875 8.125 4.67708 8.125 4.375C8.125 3.51042 8.42979 2.77354 9.03938 2.16438C9.64896 1.55521 10.3858 1.25042 11.25 1.25H14.375V4.375C14.375 5.23958 14.0702 5.97667 13.4606 6.58625C12.851 7.19583 12.1142 7.50042 11.25 7.5ZM11.25 6.25C11.7708 6.25 12.2135 6.06771 12.5781 5.70312C12.9427 5.33854 13.125 4.89583 13.125 4.375V2.5H11.25C10.7292 2.5 10.2865 2.68229 9.92188 3.04688C9.55729 3.41146 9.375 3.85417 9.375 4.375C9.375 4.51042 9.38813 4.64062 9.41438 4.76562C9.44063 4.89062 9.47958 5.01563 9.53125 5.14063L11.1563 3.51562C11.2708 3.40104 11.4167 3.34375 11.5938 3.34375C11.7708 3.34375 11.9167 3.40104 12.0313 3.51562C12.1563 3.64062 12.2188 3.78917 12.2188 3.96125C12.2188 4.13333 12.1563 4.28167 12.0313 4.40625L10.4063 6.03125C10.5417 6.09375 10.6798 6.14583 10.8206 6.1875C10.9615 6.22917 11.1046 6.25 11.25 6.25Z" fill="white"/>
</svg>
