<svg width="19" height="15" viewBox="0 0 19 15" fill="none" xmlns="http://www.w3.org/2000/svg">
<path d="M9.8001 14.2191C9.4221 14.2191 9.0681 14.0691 8.8041 13.7879L7.8921 12.8379C7.8201 12.7629 7.6281 12.6816 7.5321 12.6816H6.2361C5.4561 12.6816 4.82609 12.0253 4.82609 11.2128V9.86287C4.82609 9.76287 4.74809 9.56287 4.67609 9.48787L3.7641 8.53787C3.5001 8.26287 3.3501 7.89406 3.3501 7.50031C3.3501 7.10656 3.4941 6.73781 3.7641 6.46281L4.67609 5.5128C4.74809 5.4378 4.82609 5.23781 4.82609 5.13781V3.78787C4.82609 2.97537 5.4561 2.31906 6.2361 2.31906H7.5321C7.6281 2.31906 7.8201 2.23781 7.8921 2.16281L8.8041 1.21279C9.3321 0.662793 10.2681 0.662793 10.7961 1.21279L11.7081 2.16281C11.7801 2.23781 11.9721 2.31906 12.0681 2.31906H13.3641C14.1441 2.31906 14.7741 2.97537 14.7741 3.78787V5.13781C14.7741 5.23781 14.8521 5.4378 14.9241 5.5128L15.8361 6.46281C16.1001 6.73781 16.2501 7.10656 16.2501 7.50031C16.2501 7.89406 16.1061 8.26287 15.8361 8.53787L14.9241 9.48787C14.8521 9.56287 14.7741 9.76287 14.7741 9.86287V11.2128C14.7741 12.0253 14.1441 12.6816 13.3641 12.6816H12.0681C11.9721 12.6816 11.7801 12.7629 11.7081 12.8379L10.7961 13.7879C10.5321 14.0691 10.1781 14.2191 9.8001 14.2191ZM5.31209 8.82531C5.55209 9.07531 5.72609 9.51287 5.72609 9.86287V11.2128C5.72609 11.5066 5.9541 11.7441 6.2361 11.7441H7.5321C7.8681 11.7441 8.2881 11.9253 8.5281 12.1753L9.4401 13.1253C9.6321 13.3253 9.9681 13.3253 10.1601 13.1253L11.0721 12.1753C11.3121 11.9253 11.7321 11.7441 12.0681 11.7441H13.3641C13.6461 11.7441 13.8741 11.5066 13.8741 11.2128V9.86287C13.8741 9.51287 14.0481 9.07531 14.2881 8.82531L15.2001 7.87531C15.2961 7.77531 15.3501 7.64406 15.3501 7.50031C15.3501 7.35656 15.2961 7.22537 15.2001 7.12537L14.2881 6.17534C14.0481 5.92534 13.8741 5.48781 13.8741 5.13781V3.78787C13.8741 3.49412 13.6461 3.25656 13.3641 3.25656H12.0681C11.7321 3.25656 11.3121 3.07534 11.0721 2.82534L10.1601 1.87533C9.9681 1.67533 9.6321 1.67533 9.4401 1.87533L8.5281 2.82534C8.2881 3.07534 7.8681 3.25656 7.5321 3.25656H6.2361C5.9541 3.25656 5.72609 3.49412 5.72609 3.78787V5.13781C5.72609 5.48781 5.55209 5.92534 5.31209 6.17534L4.4001 7.12537C4.3041 7.22537 4.2501 7.35656 4.2501 7.50031C4.2501 7.64406 4.3041 7.77531 4.4001 7.87531L5.31209 8.82531Z" fill="#0F4C8A"/>
<path d="M12.2002 10C11.8642 10 11.5942 9.71875 11.5942 9.375C11.5942 9.03125 11.8642 8.75 12.1942 8.75C12.5242 8.75 12.7942 9.03125 12.7942 9.375C12.7942 9.71875 12.5302 10 12.2002 10Z" fill="#0F4C8A"/>
<path d="M8.60601 6.25C8.27001 6.25 8 5.96875 8 5.625C8 5.28125 8.27 5 8.6 5C8.93 5 9.2 5.28125 9.2 5.625C9.2 5.96875 8.93601 6.25 8.60601 6.25Z" fill="#0F4C8A"/>
<path d="M7.99977 9.8432C7.88577 9.8432 7.77177 9.79945 7.68177 9.7057C7.50777 9.52445 7.50777 9.22445 7.68177 9.0432L11.2818 5.29316C11.4558 5.11191 11.7438 5.11191 11.9178 5.29316C12.0918 5.47441 12.0918 5.77445 11.9178 5.9557L8.31777 9.7057C8.22777 9.79945 8.11377 9.8432 7.99977 9.8432Z" fill="#0F4C8A"/>
</svg>
