<svg width="30" height="30" viewBox="0 0 30 30" fill="none" xmlns="http://www.w3.org/2000/svg">
<path d="M13.2 7C12.2452 7 11.3295 7.3746 10.6544 8.0414C9.97928 8.70819 9.6 9.61256 9.6 10.5556C9.6 11.4985 9.97928 12.4029 10.6544 13.0697C11.3295 13.7365 12.2452 14.1111 13.2 14.1111C14.1548 14.1111 15.0705 13.7365 15.7456 13.0697C16.4207 12.4029 16.8 11.4985 16.8 10.5556C16.8 9.61256 16.4207 8.70819 15.7456 8.0414C15.0705 7.3746 14.1548 7 13.2 7ZM19.95 15C17.7 15 15.9 16.7778 15.9 19C15.9 21.2222 17.7 23 19.95 23C22.2 23 24 21.2222 24 19C24 16.7778 22.2 15 19.95 15ZM13.2 15.8889C9.222 15.8889 6 17.48 6 19.4444V21.2222H14.55C14.2529 20.5181 14.1 19.7628 14.1 19C14.1039 17.9461 14.3995 16.9132 14.955 16.0133C14.388 15.9422 13.812 15.8889 13.2 15.8889ZM19.95 16.3333C21.444 16.3333 22.65 17.5244 22.65 19C22.65 19.4978 22.515 19.96 22.272 20.3333L18.6 16.7067C18.978 16.4667 19.446 16.3333 19.95 16.3333ZM17.628 17.6667L21.3 21.2933C20.922 21.5333 20.454 21.6667 19.95 21.6667C18.456 21.6667 17.25 20.4756 17.25 19C17.25 18.5022 17.385 18.04 17.628 17.6667Z" fill="#FF7A00"/>
<circle opacity="0.05" cx="15" cy="15" r="15" fill="#FF7A00" fill-opacity="0.5"/>
</svg>
