<svg width="30" height="30" viewBox="0 0 30 30" fill="none" xmlns="http://www.w3.org/2000/svg">
<path d="M21.625 12.25H17.875L19.27 10.855C18.7099 10.1218 17.988 9.52775 17.1606 9.11927C16.3332 8.71079 15.4227 8.49886 14.5 8.5C11.185 8.5 8.5 11.185 8.5 14.5C8.5 15.8725 8.9575 17.125 9.73 18.1375C10.645 17.0875 12.3625 16.375 14.5 16.375C16.6375 16.375 18.3625 17.0875 19.27 18.1375C20.0701 17.0939 20.5026 15.815 20.5 14.5H22C22 18.625 18.625 22 14.5 22C10.375 22 7 18.625 7 14.5C7 10.375 10.375 7 14.5 7C16.855 7 18.9625 8.0875 20.335 9.79L21.625 8.5V12.25ZM14.5 20.5C15.925 20.5 17.23 20.005 18.25 19.18C17.77 18.4225 16.3375 17.875 14.5 17.875C12.6625 17.875 11.23 18.4225 10.75 19.18C11.77 20.005 13.075 20.5 14.5 20.5ZM14.5 10C15.9475 10 17.125 11.1775 17.125 12.625C17.125 14.0725 15.9475 15.25 14.5 15.25C13.0525 15.25 11.875 14.0725 11.875 12.625C11.875 11.1775 13.0525 10 14.5 10ZM14.5 11.5C13.8775 11.5 13.375 12.0025 13.375 12.625C13.375 13.2475 13.8775 13.75 14.5 13.75C15.1225 13.75 15.625 13.2475 15.625 12.625C15.625 12.0025 15.1225 11.5 14.5 11.5Z" fill="#0F4C8A"/>
<circle opacity="0.05" cx="15" cy="15" r="15" fill="#0F4C8A"/>
</svg>
